<svg width="33" height="32" viewBox="0 0 33 32" fill="none" xmlns="http://www.w3.org/2000/svg">
<path fill-rule="evenodd" clip-rule="evenodd" d="M16.2686 0C7.432 0 0.268555 7.16344 0.268555 16C0.268555 24.8366 7.432 32 16.2686 32C25.1051 32 32.2686 24.8366 32.2686 16C32.2686 7.16344 25.1051 0 16.2686 0ZM12.7506 7.51824C13.6608 7.47682 13.9517 7.46669 16.2692 7.46669H16.2665C18.5848 7.46669 18.8746 7.47682 19.7848 7.51824C20.6933 7.55984 21.3137 7.70367 21.8577 7.91469C22.4195 8.13247 22.8942 8.42403 23.3688 8.8987C23.8435 9.37302 24.1351 9.84911 24.3537 10.4104C24.5635 10.9529 24.7075 11.573 24.7502 12.4815C24.7911 13.3917 24.8017 13.6826 24.8017 16.0001C24.8017 18.3176 24.7911 18.6078 24.7502 19.518C24.7075 20.4261 24.5635 21.0464 24.3537 21.5891C24.1351 22.1502 23.8435 22.6263 23.3688 23.1006C22.8947 23.5753 22.4193 23.8676 21.8582 24.0855C21.3153 24.2965 20.6945 24.4404 19.786 24.482C18.8758 24.5234 18.5858 24.5335 16.2681 24.5335C13.9508 24.5335 13.6601 24.5234 12.7499 24.482C11.8416 24.4404 11.2213 24.2965 10.6784 24.0855C10.1175 23.8676 9.6414 23.5753 9.16726 23.1006C8.69277 22.6263 8.40121 22.1502 8.18308 21.589C7.97223 21.0464 7.82841 20.4263 7.78663 19.5178C7.74538 18.6076 7.73507 18.3176 7.73507 16.0001C7.73507 13.6826 7.74574 13.3915 7.78645 12.4813C7.82734 11.5732 7.97134 10.9529 8.1829 10.4102C8.40157 9.84911 8.69313 9.37302 9.1678 8.8987C9.64211 8.42421 10.1182 8.13265 10.6795 7.91469C11.222 7.70367 11.8421 7.55984 12.7506 7.51824Z" fill="#2B2B2B"/>
<path fill-rule="evenodd" clip-rule="evenodd" d="M15.5035 9.00445C15.6522 9.00422 15.8121 9.00429 15.9847 9.00437L16.2691 9.00445C18.5475 9.00445 18.8175 9.01263 19.7173 9.05352C20.5493 9.09156 21.0008 9.23059 21.3017 9.34739C21.6999 9.50206 21.9838 9.68695 22.2823 9.98562C22.581 10.2843 22.7658 10.5687 22.9209 10.967C23.0377 11.2674 23.1769 11.719 23.2147 12.551C23.2556 13.4505 23.2645 13.7208 23.2645 15.9981C23.2645 18.2755 23.2556 18.5457 23.2147 19.4453C23.1767 20.2773 23.0377 20.7288 22.9209 21.0293C22.7662 21.4275 22.581 21.7111 22.2823 22.0096C21.9836 22.3082 21.7001 22.4931 21.3017 22.6478C21.0012 22.7651 20.5493 22.9038 19.7173 22.9418C18.8177 22.9827 18.5475 22.9916 16.2691 22.9916C13.9905 22.9916 13.7204 22.9827 12.8209 22.9418C11.9888 22.9034 11.5373 22.7644 11.2363 22.6476C10.8381 22.4929 10.5536 22.3081 10.255 22.0094C9.95629 21.7107 9.7714 21.427 9.61637 21.0286C9.49957 20.7281 9.36037 20.2766 9.3225 19.4446C9.28162 18.545 9.27344 18.2748 9.27344 15.996C9.27344 13.7172 9.28162 13.4484 9.3225 12.5488C9.36055 11.7168 9.49957 11.2653 9.61637 10.9645C9.77104 10.5662 9.95629 10.2818 10.255 9.98313C10.5536 9.68446 10.8381 9.49957 11.2363 9.34455C11.5371 9.22721 11.9888 9.08854 12.8209 9.05032C13.6081 9.01476 13.9131 9.0041 15.5035 9.00232V9.00445ZM20.8241 10.4214C20.2587 10.4214 19.8001 10.8795 19.8001 11.445C19.8001 12.0103 20.2587 12.469 20.8241 12.469C21.3894 12.469 21.8481 12.0103 21.8481 11.445C21.8481 10.8797 21.3894 10.421 20.8241 10.421V10.4214ZM11.8868 16.0001C11.8868 13.58 13.8488 11.6179 16.2689 11.6178C18.689 11.6178 20.6506 13.58 20.6506 16.0001C20.6506 18.4202 18.6892 20.3815 16.269 20.3815C13.8489 20.3815 11.8868 18.4202 11.8868 16.0001Z" fill="#2B2B2B"/>
<path d="M16.2693 13.1556C17.8401 13.1556 19.1138 14.4291 19.1138 16.0001C19.1138 17.571 17.8401 18.8446 16.2693 18.8446C14.6982 18.8446 13.4248 17.571 13.4248 16.0001C13.4248 14.4291 14.6982 13.1556 16.2693 13.1556V13.1556Z" fill="#2B2B2B"/>
</svg>
