<svg width="32" height="33" viewBox="0 0 32 33" fill="none" xmlns="http://www.w3.org/2000/svg">
<path fill-rule="evenodd" clip-rule="evenodd" d="M16 0.731323C7.16344 0.731323 0 7.89477 0 16.7313C0 25.5679 7.16344 32.7313 16 32.7313C24.8366 32.7313 32 25.5679 32 16.7313C32 7.89477 24.8366 0.731323 16 0.731323ZM15.5544 14.29L15.5208 13.7363C15.4201 12.3014 16.3042 10.9907 17.7032 10.4823C18.218 10.3015 19.0909 10.2789 19.6617 10.4371C19.8856 10.5049 20.3108 10.7309 20.613 10.9342L21.1614 11.3071L21.7658 11.115C22.1015 11.0133 22.5492 10.8439 22.7506 10.7309C22.9409 10.6292 23.1088 10.5727 23.1088 10.6066C23.1088 10.7987 22.6947 11.454 22.3477 11.8155C21.8777 12.324 22.012 12.3692 22.9633 12.0302C23.534 11.8381 23.5452 11.8381 23.4333 12.0528C23.3662 12.1658 23.0192 12.5613 22.6499 12.9228C22.0232 13.5442 21.9896 13.612 21.9896 14.1318C21.9896 14.934 21.6091 16.6062 21.2285 17.5214C20.5235 19.2388 19.0126 21.0127 17.5017 21.9053C15.3753 23.1594 12.5438 23.4758 10.16 22.7414C9.36538 22.4928 8 21.8601 8 21.7471C8 21.7132 8.41409 21.668 8.91772 21.6567C9.96973 21.6341 11.0218 21.3403 11.9171 20.8206L12.5214 20.459L11.8275 20.2218C10.8427 19.8828 9.95854 19.1032 9.73471 18.3688C9.66756 18.1315 9.68994 18.1202 10.3167 18.1202L10.9658 18.1089L10.4174 17.849C9.76828 17.5214 9.17513 16.9678 8.88414 16.4028C8.6715 15.9961 8.4029 14.9679 8.48124 14.8888C8.50362 14.8549 8.73865 14.9227 9.00725 15.0131C9.77948 15.2955 9.8802 15.2278 9.43253 14.7532C8.59316 13.8945 8.33575 12.6178 8.73865 11.4088L8.92891 10.8665L9.66756 11.6009C11.1784 13.081 12.9579 13.9623 14.9948 14.2222L15.5544 14.29Z" fill="white"/>
</svg>
