<svg width="25" height="25" viewBox="0 0 25 25" fill="none" xmlns="http://www.w3.org/2000/svg">
<g clip-path="url(#clip0)">
<path d="M8.08922 22.3826C17.1436 22.3826 22.0973 14.8793 22.0973 8.37443C22.0973 8.16349 22.0927 7.94787 22.0833 7.73693C23.0469 7.04003 23.8786 6.17682 24.5391 5.18787C23.6416 5.58717 22.6887 5.84795 21.713 5.9613C22.7403 5.34548 23.5096 4.37804 23.8781 3.23834C22.9116 3.81113 21.8546 4.21518 20.7525 4.43318C20.0099 3.64413 19.028 3.12168 17.9587 2.94662C16.8894 2.77155 15.7923 2.95362 14.8368 3.46466C13.8814 3.97571 13.1209 4.78727 12.6729 5.77388C12.225 6.76049 12.1145 7.86718 12.3586 8.92287C10.4016 8.82466 8.487 8.31627 6.73904 7.43067C4.99109 6.54506 3.44876 5.30201 2.21203 3.78209C1.58346 4.86581 1.39112 6.14821 1.67409 7.36866C1.95707 8.58911 2.69413 9.65602 3.73547 10.3526C2.95369 10.3277 2.18904 10.1172 1.50469 9.73849V9.79943C1.50399 10.9367 1.89716 12.0392 2.61737 12.9193C3.33758 13.7995 4.34039 14.4031 5.45531 14.6276C4.73112 14.8257 3.97104 14.8546 3.23391 14.7119C3.54852 15.69 4.16064 16.5455 4.98483 17.1589C5.80903 17.7723 6.80418 18.1132 7.83141 18.1338C6.08749 19.5037 3.93324 20.2467 1.71563 20.2432C1.32235 20.2426 0.929462 20.2185 0.539062 20.171C2.79192 21.6163 5.41259 22.384 8.08922 22.3826Z" fill="#2B2B2B"/>
</g>
<defs>
<clipPath id="clip0">
<rect width="24" height="24" fill="white" transform="translate(0.539062 0.632812)"/>
</clipPath>
</defs>
</svg>
