<svg width="61" height="21" viewBox="0 0 61 21" fill="none" xmlns="http://www.w3.org/2000/svg">
<path d="M0.934 4.17625L3.75 16.0782H8.414L11.318 4.17625H7.226L6.126 12.7342H6.082L4.96 4.17625H0.934ZM11.9756 4.17625V13.1522C11.9756 13.7829 12.0563 14.3109 12.2176 14.7362C12.3789 15.1469 12.5989 15.4769 12.8776 15.7262C13.1563 15.9609 13.4789 16.1149 13.8456 16.1882C14.2269 16.2762 14.6376 16.3202 15.0776 16.3202C16.5003 16.3202 17.4609 15.7556 17.9596 14.6262H18.0036V16.0782H21.8316V4.17625H17.8716V12.0302C17.8716 12.5289 17.7983 12.8882 17.6516 13.1082C17.5049 13.3282 17.2556 13.4382 16.9036 13.4382C16.5516 13.4382 16.3023 13.3282 16.1556 13.1082C16.0089 12.8882 15.9356 12.5289 15.9356 12.0302V4.17625H11.9756ZM29.1913 8.11425V8.64225H27.0133V8.11425C27.0133 7.48358 27.0866 7.02158 27.2333 6.72825C27.3946 6.43491 27.6806 6.28825 28.0913 6.28825C28.5166 6.28825 28.8026 6.43491 28.9493 6.72825C29.1106 7.02158 29.1913 7.48358 29.1913 8.11425ZM27.0133 10.7982H32.8873V9.58825C32.8873 8.50291 32.7846 7.60091 32.5793 6.88225C32.3886 6.14891 32.0879 5.56225 31.6773 5.12225C31.2813 4.66758 30.7826 4.34491 30.1813 4.15425C29.5946 3.96358 28.9053 3.86825 28.1133 3.86825C27.2186 3.86825 26.4486 3.98558 25.8033 4.22025C25.1726 4.44025 24.6519 4.79958 24.2413 5.29825C23.8306 5.79691 23.5299 6.44225 23.3393 7.23425C23.1486 8.02625 23.0533 8.99425 23.0533 10.1382C23.0533 11.2676 23.1339 12.2282 23.2953 13.0202C23.4713 13.8122 23.7573 14.4576 24.1533 14.9562C24.5493 15.4402 25.0699 15.7922 25.7153 16.0122C26.3606 16.2176 27.1599 16.3202 28.1133 16.3202C29.7559 16.3202 30.9366 15.9536 31.6553 15.2202C32.3739 14.4722 32.7479 13.3649 32.7773 11.8982H29.2133C29.2133 12.7049 29.1106 13.2549 28.9053 13.5482C28.7146 13.8269 28.4433 13.9662 28.0913 13.9662C27.8126 13.9662 27.5633 13.8636 27.3433 13.6582C27.1233 13.4382 27.0133 13.0056 27.0133 12.3602V10.7982ZM34.0631 0.370246V16.0782H38.0231V0.370246H34.0631ZM43.277 10.1382C43.277 9.39025 43.2916 8.77425 43.321 8.29025C43.3503 7.80625 43.409 7.42491 43.497 7.14625C43.585 6.86758 43.695 6.67691 43.827 6.57425C43.9736 6.47158 44.157 6.42025 44.377 6.42025C44.597 6.42025 44.7803 6.47158 44.927 6.57425C45.0736 6.67691 45.1836 6.86758 45.257 7.14625C45.345 7.42491 45.4036 7.80625 45.433 8.29025C45.4623 8.77425 45.477 9.39025 45.477 10.1382C45.477 10.8862 45.4623 11.5022 45.433 11.9862C45.4036 12.4556 45.345 12.8296 45.257 13.1082C45.1836 13.3869 45.0736 13.5776 44.927 13.6802C44.7803 13.7829 44.597 13.8342 44.377 13.8342C44.157 13.8342 43.9736 13.7829 43.827 13.6802C43.695 13.5776 43.585 13.3869 43.497 13.1082C43.409 12.8296 43.3503 12.4556 43.321 11.9862C43.2916 11.5022 43.277 10.8862 43.277 10.1382ZM49.437 10.1382C49.437 9.27291 49.3856 8.46625 49.283 7.71825C49.195 6.95558 48.9823 6.28825 48.645 5.71625C48.3076 5.14425 47.8016 4.69691 47.127 4.37425C46.4523 4.03691 45.5356 3.86825 44.377 3.86825C43.2623 3.86825 42.3676 4.05158 41.693 4.41825C41.033 4.77025 40.527 5.23958 40.175 5.82625C39.823 6.41291 39.5883 7.08025 39.471 7.82825C39.3683 8.57625 39.317 9.33891 39.317 10.1162C39.317 10.9816 39.361 11.7956 39.449 12.5582C39.5516 13.3062 39.7716 13.9662 40.109 14.5382C40.4463 15.0956 40.9523 15.5356 41.627 15.8582C42.3016 16.1662 43.2183 16.3202 44.377 16.3202C45.4916 16.3202 46.379 16.1516 47.039 15.8142C47.7136 15.4622 48.227 15.0002 48.579 14.4282C48.931 13.8416 49.1583 13.1742 49.261 12.4262C49.3783 11.6782 49.437 10.9156 49.437 10.1382ZM56.763 4.17625V5.82625H56.719C56.499 5.10758 56.147 4.60158 55.663 4.30825C55.179 4.01491 54.6583 3.86825 54.101 3.86825C53.529 3.86825 53.0156 3.97091 52.561 4.17625C52.1063 4.36691 51.7176 4.69691 51.395 5.16625C51.087 5.62091 50.845 6.23691 50.669 7.01425C50.5076 7.77691 50.427 8.73025 50.427 9.87425C50.427 11.1062 50.5296 12.1109 50.735 12.8882C50.955 13.6509 51.2336 14.2449 51.571 14.6702C51.9083 15.0956 52.2823 15.3816 52.693 15.5282C53.1036 15.6749 53.507 15.7482 53.903 15.7482C54.4456 15.7482 54.9663 15.6236 55.465 15.3742C55.9636 15.1249 56.3376 14.6556 56.587 13.9662H56.631V16.1662C56.631 16.5036 56.5943 16.7676 56.521 16.9582C56.4476 17.1489 56.3523 17.2956 56.235 17.3982C56.1323 17.5009 56.0076 17.5669 55.861 17.5962C55.7143 17.6256 55.5676 17.6402 55.421 17.6402C55.113 17.6402 54.871 17.5596 54.695 17.3982C54.519 17.2369 54.431 17.0096 54.431 16.7162H50.867C50.8816 17.3909 51.0063 17.9409 51.241 18.3662C51.4903 18.8062 51.8203 19.1509 52.231 19.4002C52.6563 19.6496 53.1476 19.8182 53.705 19.9062C54.2623 20.0089 54.8563 20.0602 55.487 20.0602C56.191 20.0602 56.8436 19.9869 57.445 19.8402C58.0463 19.7082 58.567 19.4809 59.007 19.1582C59.4616 18.8356 59.8136 18.4029 60.063 17.8602C60.327 17.3176 60.459 16.6576 60.459 15.8802V4.17625H56.763ZM54.387 9.80825C54.387 9.19225 54.409 8.69358 54.453 8.31225C54.5116 7.91625 54.585 7.60825 54.673 7.38825C54.7756 7.16825 54.893 7.02158 55.025 6.94825C55.1716 6.86025 55.3403 6.81625 55.531 6.81625C55.707 6.81625 55.861 6.86025 55.993 6.94825C56.1396 7.02158 56.257 7.16825 56.345 7.38825C56.4476 7.60825 56.521 7.91625 56.565 8.31225C56.609 8.69358 56.631 9.19225 56.631 9.80825C56.631 10.4389 56.609 10.9522 56.565 11.3482C56.521 11.7296 56.4476 12.0302 56.345 12.2502C56.257 12.4702 56.1396 12.6169 55.993 12.6902C55.861 12.7636 55.707 12.8002 55.531 12.8002C55.3403 12.8002 55.1716 12.7636 55.025 12.6902C54.893 12.6169 54.7756 12.4702 54.673 12.2502C54.585 12.0302 54.5116 11.7296 54.453 11.3482C54.409 10.9522 54.387 10.4389 54.387 9.80825Z" fill="black"/>
</svg>
