<svg width="25" height="25" viewBox="0 0 25 25" fill="none" xmlns="http://www.w3.org/2000/svg">
<g clip-path="url(#clip0)">
<path d="M12.5391 2.79375C15.7453 2.79375 16.125 2.80781 17.3859 2.86406C18.5578 2.91562 19.1906 3.1125 19.6125 3.27656C20.1703 3.49219 20.5734 3.75469 20.9906 4.17188C21.4125 4.59375 21.6703 4.99219 21.8859 5.55C22.05 5.97188 22.2469 6.60937 22.2984 7.77656C22.3547 9.04219 22.3688 9.42188 22.3688 12.6234C22.3688 15.8297 22.3547 16.2094 22.2984 17.4703C22.2469 18.6422 22.05 19.275 21.8859 19.6969C21.6703 20.2547 21.4078 20.6578 20.9906 21.075C20.5688 21.4969 20.1703 21.7547 19.6125 21.9703C19.1906 22.1344 18.5531 22.3312 17.3859 22.3828C16.1203 22.4391 15.7406 22.4531 12.5391 22.4531C9.33281 22.4531 8.95313 22.4391 7.69219 22.3828C6.52031 22.3312 5.8875 22.1344 5.46563 21.9703C4.90781 21.7547 4.50469 21.4922 4.0875 21.075C3.66563 20.6531 3.40781 20.2547 3.19219 19.6969C3.02813 19.275 2.83125 18.6375 2.77969 17.4703C2.72344 16.2047 2.70938 15.825 2.70938 12.6234C2.70938 9.41719 2.72344 9.0375 2.77969 7.77656C2.83125 6.60469 3.02813 5.97188 3.19219 5.55C3.40781 4.99219 3.67031 4.58906 4.0875 4.17188C4.50938 3.75 4.90781 3.49219 5.46563 3.27656C5.8875 3.1125 6.525 2.91562 7.69219 2.86406C8.95313 2.80781 9.33281 2.79375 12.5391 2.79375ZM12.5391 0.632812C9.28125 0.632812 8.87344 0.646875 7.59375 0.703125C6.31875 0.759375 5.44219 0.965625 4.68281 1.26094C3.89063 1.57031 3.22031 1.97812 2.55469 2.64844C1.88438 3.31406 1.47656 3.98438 1.16719 4.77188C0.871875 5.53594 0.665625 6.40781 0.609375 7.68281C0.553125 8.96719 0.539062 9.375 0.539062 12.6328C0.539062 15.8906 0.553125 16.2984 0.609375 17.5781C0.665625 18.8531 0.871875 19.7297 1.16719 20.4891C1.47656 21.2813 1.88438 21.9516 2.55469 22.6172C3.22031 23.2828 3.89063 23.6953 4.67813 24C5.44219 24.2953 6.31406 24.5016 7.58906 24.5578C8.86875 24.6141 9.27656 24.6281 12.5344 24.6281C15.7922 24.6281 16.2 24.6141 17.4797 24.5578C18.7547 24.5016 19.6313 24.2953 20.3906 24C21.1781 23.6953 21.8484 23.2828 22.5141 22.6172C23.1797 21.9516 23.5922 21.2813 23.8969 20.4938C24.1922 19.7297 24.3984 18.8578 24.4547 17.5828C24.5109 16.3031 24.525 15.8953 24.525 12.6375C24.525 9.37969 24.5109 8.97188 24.4547 7.69219C24.3984 6.41719 24.1922 5.54063 23.8969 4.78125C23.6016 3.98438 23.1938 3.31406 22.5234 2.64844C21.8578 1.98281 21.1875 1.57031 20.4 1.26562C19.6359 0.970312 18.7641 0.764063 17.4891 0.707813C16.2047 0.646875 15.7969 0.632812 12.5391 0.632812Z" fill="#2B2B2B"/>
<path d="M12.5391 6.46875C9.13594 6.46875 6.375 9.22969 6.375 12.6328C6.375 16.0359 9.13594 18.7969 12.5391 18.7969C15.9422 18.7969 18.7031 16.0359 18.7031 12.6328C18.7031 9.22969 15.9422 6.46875 12.5391 6.46875ZM12.5391 16.6312C10.3313 16.6312 8.54062 14.8406 8.54062 12.6328C8.54062 10.425 10.3313 8.63437 12.5391 8.63437C14.7469 8.63437 16.5375 10.425 16.5375 12.6328C16.5375 14.8406 14.7469 16.6312 12.5391 16.6312Z" fill="#2B2B2B"/>
<path d="M20.3859 6.2252C20.3859 7.02207 19.7391 7.66426 18.9469 7.66426C18.15 7.66426 17.5078 7.01739 17.5078 6.2252C17.5078 5.42832 18.1547 4.78613 18.9469 4.78613C19.7391 4.78613 20.3859 5.43301 20.3859 6.2252Z" fill="#2B2B2B"/>
</g>
<defs>
<clipPath id="clip0">
<rect width="24" height="24" fill="white" transform="translate(0.539062 0.632812)"/>
</clipPath>
</defs>
</svg>
