<svg width="24" height="16" viewBox="0 0 24 16" fill="none" xmlns="http://www.w3.org/2000/svg">
<path d="M16.859 6.296L23 1.628V14.203L16.859 6.296ZM7.936 6.9L10.906 9.158C11.214 9.391 11.607 9.507 12 9.507C12.394 9.507 12.787 9.391 13.094 9.158L16.063 6.901L22.354 15H1.634L7.936 6.9ZM7.14 6.295L1 14.186V1.628L7.14 6.295ZM12.489 8.362C12.23 8.559 11.773 8.56 11.512 8.362L1.827 1H22.174L12.489 8.362ZM22.497 0H1.503C0.674 0 0 0.676 0 1.507V14.493C0 15.324 0.674 16 1.503 16H22.497C23.326 16 24 15.324 24 14.493V1.507C24 0.676 23.326 0 22.497 0Z" fill="#767676"/>
</svg>
