<svg width="24" height="24" viewBox="0 0 24 24" fill="none" xmlns="http://www.w3.org/2000/svg">
<path fill-rule="evenodd" clip-rule="evenodd" d="M23.53 22.47L16.723 15.662C18.1941 13.9462 19.0019 11.7601 19 9.5C19 7.62108 18.4428 5.78435 17.399 4.22209C16.3551 2.65982 14.8714 1.44218 13.1355 0.723149C11.3996 0.00411618 9.48947 -0.184015 7.64665 0.182544C5.80383 0.549104 4.11109 1.45389 2.78249 2.78249C1.45389 4.11109 0.549104 5.80383 0.182544 7.64665C-0.184015 9.48947 0.00411618 11.3996 0.723149 13.1355C1.44218 14.8714 2.65982 16.3551 4.22209 17.399C5.78435 18.4428 7.62108 19 9.5 19C11.853 19 14.002 18.14 15.662 16.723L22.47 23.53C22.6122 23.6625 22.8002 23.7346 22.9945 23.7312C23.1888 23.7278 23.3742 23.649 23.5116 23.5116C23.649 23.3742 23.7278 23.1888 23.7312 22.9945C23.7346 22.8002 23.6625 22.6122 23.53 22.47V22.47ZM9.5 17.5C7.37827 17.5 5.34344 16.6571 3.84315 15.1569C2.34286 13.6566 1.5 11.6217 1.5 9.5C1.5 7.37827 2.34286 5.34344 3.84315 3.84315C5.34344 2.34286 7.37827 1.5 9.5 1.5C11.6217 1.5 13.6566 2.34286 15.1569 3.84315C16.6571 5.34344 17.5 7.37827 17.5 9.5C17.5 11.6217 16.6571 13.6566 15.1569 15.1569C13.6566 16.6571 11.6217 17.5 9.5 17.5V17.5Z" fill="#2B2B2B"/>
</svg>
